<mxfile host="www.draw.io" modified="2020-02-05T02:35:10.728Z" agent="Mozilla/5.0 (Windows NT 10.0; Win64; x64) AppleWebKit/537.36 (KHTML, like Gecko) Chrome/79.0.3945.130 Safari/537.36" etag="JX3jse05he7m5_s8fDAO" version="12.6.5" type="github">
  <diagram id="CLRaHryyYa0xOvTVhCor" name="Page-1">
    <mxGraphModel dx="706" dy="495" grid="1" gridSize="10" guides="1" tooltips="1" connect="1" arrows="1" fold="1" page="1" pageScale="1" pageWidth="850" pageHeight="1100" math="0" shadow="0">
      <root>
        <mxCell id="0"/>
        <mxCell id="1" parent="0"/>
        <mxCell id="xvll8Nh_N9pdd9aSw5_w-8" value="-" style="group" parent="1" vertex="1" connectable="0">
          <mxGeometry x="140.00000000000003" y="70" width="425.28" height="350" as="geometry"/>
        </mxCell>
        <mxCell id="xvll8Nh_N9pdd9aSw5_w-6" value="Warehouse" style="text;html=1;align=center;verticalAlign=middle;whiteSpace=wrap;rounded=0;strokeColor=#000000;fillColor=#ffffff;" parent="xvll8Nh_N9pdd9aSw5_w-8" vertex="1">
          <mxGeometry width="425.28" height="58.33333333333332" as="geometry"/>
        </mxCell>
        <mxCell id="xvll8Nh_N9pdd9aSw5_w-7" value="&amp;nbsp; -&amp;nbsp; Client: clientList&amp;nbsp;&lt;br&gt;&amp;nbsp; -&amp;nbsp; Order: orderList&lt;br&gt;&amp;nbsp; -&amp;nbsp; Product: productList&lt;br&gt;&amp;nbsp; -&amp;nbsp; Supplier: supplierList&lt;br&gt;&amp;nbsp;+&amp;nbsp; getClients(): string&lt;br&gt;&amp;nbsp;+&amp;nbsp; addClient(string: client name, string: phone, string address): void&lt;br&gt;&amp;nbsp;+&amp;nbsp; findClient(string parameter): bool/client/clients[]&lt;br&gt;&amp;nbsp;+&amp;nbsp; removeClient(unsigned long clientID): bool&lt;br&gt;&amp;nbsp;+&amp;nbsp; getOrders(): string&lt;br&gt;&amp;nbsp;+&amp;nbsp; addOrder(unsigned long clientID, undsigned long productID): void&lt;br&gt;&amp;nbsp;+&amp;nbsp; findOrder(string parameter): bool/order/orders[]&lt;br&gt;&amp;nbsp;+&amp;nbsp; removeOrder(unsigned long orderNumber): bool&lt;br&gt;&amp;nbsp;+&amp;nbsp; getProducts(): string&lt;br&gt;&amp;nbsp;+&amp;nbsp; addProduct(string name, double purchasePrice, double salePrice): void&lt;br&gt;&amp;nbsp;+&amp;nbsp; findProduct(string parameter): bool/product/products[]&lt;br&gt;&amp;nbsp;+&amp;nbsp; removeProduct(unsigned long productID): bool&lt;br&gt;&amp;nbsp;+&amp;nbsp; getSuppliers(): string&lt;br&gt;&amp;nbsp;+&amp;nbsp; addSupplier(string name, string phone, string address, product list): void&lt;br&gt;&amp;nbsp;+&amp;nbsp; findSupplier(string parameter): bool/supplier/suppliers[]&lt;br&gt;&amp;nbsp;+&amp;nbsp; removeSupplier(unsigned long supplierID): bool" style="text;html=1;align=left;verticalAlign=middle;whiteSpace=wrap;rounded=0;strokeColor=#000000;fillColor=#ffffff;" parent="xvll8Nh_N9pdd9aSw5_w-8" vertex="1">
          <mxGeometry y="58.33333333333332" width="425.28" height="291.66666666666663" as="geometry"/>
        </mxCell>
      </root>
    </mxGraphModel>
  </diagram>
</mxfile>
